<?xml version="1.0" standalone="no"?><!DOCTYPE svg PUBLIC "-//W3C//DTD SVG 1.1//EN" "http://www.w3.org/Graphics/SVG/1.1/DTD/svg11.dtd"><svg t="1589870106649" class="icon" viewBox="0 0 1024 1024" version="1.1" xmlns="http://www.w3.org/2000/svg" p-id="2716" width="20" height="20" xmlns:xlink="http://www.w3.org/1999/xlink"><defs><style type="text/css"></style></defs><path d="M501.857 415.48v85.982h24.595q49.99 0 49.99-43.48 0-42.471-49.49-42.451h-25.095z m330.7-111.485V63.996A63.986 63.986 0 0 0 768.57 0.01H256.58a63.986 63.986 0 0 0-63.986 63.986v239.999H73.189v400.004h119.385v256.015A63.986 63.986 0 0 0 256.56 1024h512.01a63.986 63.986 0 0 0 63.986-63.986V703.999h118.255V303.995zM768.57 80.043v223.952H256.59V80.003z m-132.472 375.66q0 40.9-29.993 65.565t-74.984 23.645h-29.264v92.81H445.14V371.48h91.62q99.33 0 99.34 84.222zM225.487 576.675l-19.596 60.987h-61.537l97.449-266.233H308.5l95.56 266.233H342.19l-19.935-60.987z m287.138 415.33a31.993 31.993 0 1 1 31.993-31.992 31.993 31.993 0 0 1-31.993 31.993z m255.945-95.979H256.58V704.07h511.99v191.958z m61.487-374.759q-29.994 24.675-74.984 23.645h-29.254v92.81h-56.718V371.48h91.59q99.38 0 99.35 84.222 0 40.901-29.984 65.566z m-79.143-105.777h-25.095v85.981h24.565q49.989 0 49.989-43.48 0.04-42.521-49.46-42.511z m-476.438 1.88h-1.56a98.329 98.329 0 0 1-4.629 22.514l-30.433 92.98h70.985l-30.254-92.3q-2.91-8.758-4.109-23.195z" p-id="2717" fill="#13227a"></path></svg>