<?xml version="1.0" standalone="no"?><!DOCTYPE svg PUBLIC "-//W3C//DTD SVG 1.1//EN" "http://www.w3.org/Graphics/SVG/1.1/DTD/svg11.dtd"><svg t="1589870155369" class="icon" viewBox="0 0 1024 1024" version="1.1" xmlns="http://www.w3.org/2000/svg" p-id="5242" width="20" height="20" xmlns:xlink="http://www.w3.org/1999/xlink"><defs><style type="text/css"></style></defs><path d="M806.171147 544.175861c1.5116 154.817057 143.016828 206.357728 144.674711 207.040385-1.267793 3.559573-22.673994 73.483246-74.653516 145.698698-44.957898 62.414436-91.476157 124.438781-164.910642 125.706575-72.264214 1.316555-95.425821-40.618144-177.978664-40.618145-82.504082 0-108.298798 39.350351-176.613348 41.934699-70.801375 2.535586-124.828871-67.339325-170.079337-129.509954-92.646428-127.169413-163.350281-359.321856-68.363312-515.991842a266.187816 266.187816 0 0 1 222.985324-128.437206c69.631105-1.170271 135.410069 44.616569 177.881141 44.61657 42.617357 0 122.390807-55.051483 206.357728-46.957111 35.10812 1.365316 133.800946 13.409351 197.141846 101.423458-5.071173 3.120722-117.758486 65.340112-116.441931 195.045111zM510.580281 236.004585c-8.143133-58.903624 22.381427-120.050266 57.196978-158.474153C606.688759 34.181656 672.418962 1.999212 726.54398 0c6.972863 59.976372-18.480524 120.147789-56.075469 163.496565-37.643706 43.251253-99.375484 76.945296-159.88823 72.50802z" p-id="5243" fill="#13227a"></path></svg>