<?xml version="1.0" standalone="no"?><!DOCTYPE svg PUBLIC "-//W3C//DTD SVG 1.1//EN" "http://www.w3.org/Graphics/SVG/1.1/DTD/svg11.dtd"><svg t="1589870137656" class="icon" viewBox="0 0 1024 1024" version="1.1" xmlns="http://www.w3.org/2000/svg" p-id="4321" width="20" height="20" xmlns:xlink="http://www.w3.org/1999/xlink"><defs><style type="text/css"></style></defs><path d="M597.710745 214.889232h41.836841v-43.884799h-41.836841z m-213.133841 0h41.836842v-43.884799h-41.836842z m276.766799-121.999741a240.488698 240.488698 0 0 1 105.616083 205.819707H257.018422a238.587024 238.587024 0 0 1 103.568126-205.819707l-55.733695-55.879977a17.992768 17.992768 0 0 1 0-29.256533 19.455594 19.455594 0 0 1 29.256532 0L397.888627 71.678505A235.07624 235.07624 0 0 1 511.989104 43.007103a231.126608 231.126608 0 0 1 111.467389 27.939989L687.5283 7.021568a19.455594 19.455594 0 0 1 29.256533 0 19.601877 19.601877 0 0 1 0 29.256532z m211.085883 249.850789A64.656937 64.656937 0 0 1 936.208827 406.665804v297.68522a60.707305 60.707305 0 0 1-18.870463 45.932756 64.80322 64.80322 0 0 1-89.671273 0 60.707305 60.707305 0 0 1-18.870463-45.932756V406.665804a61.585001 61.585001 0 0 1 18.870463-44.908778 60.999871 60.999871 0 0 1 44.762495-19.016746z m-721.027247 0a61.292436 61.292436 0 0 1 44.762495 19.016746 61.292436 61.292436 0 0 1 19.016746 44.908778v297.68522a60.707305 60.707305 0 0 1-18.870463 45.932756 62.901545 62.901545 0 0 1-44.762495 17.992767 62.755263 62.755263 0 0 1-44.762495-17.992767A60.707305 60.707305 0 0 1 87.769381 704.351024V406.665804a61.585001 61.585001 0 0 1 18.870463-44.908778 60.999871 60.999871 0 0 1 44.908778-19.016746z m105.616083 425.536267V342.74028h509.941364v425.536267a40.812863 40.812863 0 0 1-41.836842 41.983125h-43.884799v149.793447a60.561023 60.561023 0 0 1-18.870463 45.932756 64.80322 64.80322 0 0 1-89.671273 0 60.707305 60.707305 0 0 1-18.870463-45.932756V810.113389h-83.673684v149.93973a60.561023 60.561023 0 0 1-18.870463 45.932756 64.80322 64.80322 0 0 1-89.671273 0 60.561023 60.561023 0 0 1-18.870463-45.932756V810.113389h-43.884799a40.812863 40.812863 0 0 1-41.836842-41.983124z" p-id="4322" fill="#13227a"></path></svg>